<?xml version="1.0" standalone="no"?>
<!DOCTYPE svg PUBLIC "-//W3C//DTD SVG 20010904//EN"
 "http://www.w3.org/TR/2001/REC-SVG-20010904/DTD/svg10.dtd">
<svg version="1.0" xmlns="http://www.w3.org/2000/svg"
 width="1500.000000pt" height="1500.000000pt" viewBox="0 0 1500.000000 1500.000000"
 preserveAspectRatio="xMidYMid meet">

<g transform="translate(0.000000,1500.000000) scale(0.100000,-0.100000)"
fill="#000000" stroke="none">
<path d="M7473 9186 c-117 -29 -219 -59 -228 -66 -12 -10 -15 -39 -15 -152 l0
-140 23 6 c107 30 269 68 347 81 52 8 110 18 128 21 l33 5 -3 147 -3 147 -35
2 c-19 2 -131 -21 -247 -51z"/>
<path d="M7841 8874 c-367 -59 -732 -217 -1056 -458 -105 -77 -291 -267 -334
-339 -86 -146 -106 -259 -62 -350 134 -276 807 -237 1443 83 313 158 579 368
704 557 125 188 120 356 -13 441 -96 60 -166 75 -388 78 -143 2 -227 -1 -294
-12z m147 -34 c93 -15 164 -46 216 -92 60 -52 87 -107 94 -184 17 -221 -185
-496 -522 -709 l-59 -37 7 323 c3 178 9 408 12 511 l7 187 31 4 c63 8 153 7
214 -3z m-743 -707 c-4 -274 -11 -502 -15 -506 -13 -15 -174 -20 -250 -8 -140
22 -233 79 -280 174 -24 47 -30 73 -30 122 0 209 184 464 474 656 49 32 94 59
99 59 5 0 6 -199 2 -497z"/>
<path d="M5521 6752 c-69 -37 -96 -155 -48 -200 66 -62 167 8 170 119 2 44 -2
54 -26 75 -34 29 -51 30 -96 6z"/>
<path d="M6001 6669 c-71 -12 -136 -42 -154 -71 -16 -24 -167 -865 -167 -928
0 -20 5 -41 12 -48 13 -13 106 -16 125 -4 6 4 23 72 37 152 14 80 29 155 31
168 5 21 10 22 113 22 131 0 223 19 302 61 113 60 188 174 210 316 27 173 -49
291 -209 327 -75 17 -212 19 -300 5z m250 -190 c21 -7 51 -25 66 -41 24 -26
28 -37 28 -88 -1 -76 -37 -132 -110 -169 -44 -23 -63 -26 -183 -29 l-133 -4 6
34 c3 18 16 91 29 161 14 78 29 132 37 138 20 13 215 11 260 -2z"/>
<path d="M7673 6485 c-112 -30 -187 -84 -203 -145 -13 -50 -160 -899 -160
-926 0 -36 26 -54 79 -54 27 0 53 6 59 13 5 6 20 74 33 150 13 76 27 143 30
149 5 8 19 6 46 -4 136 -55 308 -16 430 96 101 92 171 289 161 456 -10 179
-136 281 -342 279 -45 0 -105 -7 -133 -14z m227 -187 c57 -30 80 -74 80 -154
0 -137 -63 -251 -160 -293 -82 -35 -250 -26 -272 15 -3 5 11 101 31 214 l36
205 50 17 c74 25 180 23 235 -4z"/>
<path d="M6817 6439 c-96 -22 -147 -75 -147 -150 0 -33 5 -51 14 -55 7 -3 47
5 87 18 94 29 227 31 277 5 36 -19 56 -59 48 -92 -5 -19 -19 -22 -158 -37
-227 -24 -303 -60 -362 -169 -22 -40 -30 -70 -34 -125 -6 -90 0 -115 39 -158
47 -54 123 -78 244 -79 161 -1 295 46 336 118 26 45 102 496 94 557 -11 80
-70 145 -154 168 -44 12 -231 11 -284 -1z m232 -544 c-6 -42 -18 -83 -26 -90
-39 -40 -241 -45 -291 -8 -55 41 -35 109 40 137 36 14 276 47 286 40 2 -1 -2
-37 -9 -79z"/>
<path d="M8563 6431 c-197 -73 -316 -264 -317 -511 0 -75 4 -105 21 -141 29
-66 77 -114 141 -146 48 -24 72 -28 161 -32 133 -4 213 15 272 68 38 33 42 42
47 93 5 69 -4 76 -67 49 -70 -30 -168 -43 -244 -32 -107 15 -156 47 -172 113
l-6 25 243 33 c134 18 257 39 275 46 51 20 68 63 68 174 0 78 -4 102 -22 135
-25 48 -75 96 -123 121 -53 27 -208 30 -277 5z m197 -169 c37 -18 80 -73 80
-102 0 -15 -15 -20 -87 -30 -49 -7 -143 -20 -210 -29 -114 -16 -123 -16 -123
-1 0 25 54 105 88 129 72 51 186 66 252 33z"/>
<path d="M9383 6435 c-108 -29 -193 -89 -213 -149 -10 -34 -110 -599 -110
-627 0 -31 29 -49 78 -49 26 0 52 4 58 8 6 4 35 140 64 302 29 162 54 298 56
302 11 19 110 41 207 45 108 6 108 6 123 36 26 49 22 96 -10 123 -24 21 -36
24 -114 23 -48 0 -111 -7 -139 -14z"/>
<path d="M5453 6433 c-13 -3 -25 -14 -28 -26 -14 -61 -125 -715 -125 -738 0
-41 24 -59 78 -59 26 0 52 4 58 8 6 4 39 169 73 367 34 198 64 370 66 383 4
15 -2 30 -19 47 -24 24 -49 28 -103 18z"/>
</g>
</svg>
