<?xml version="1.0" standalone="no"?>
<!DOCTYPE svg PUBLIC "-//W3C//DTD SVG 20010904//EN"
 "http://www.w3.org/TR/2001/REC-SVG-20010904/DTD/svg10.dtd">
<svg version="1.0" xmlns="http://www.w3.org/2000/svg"
 width="1500.000000pt" height="1500.000000pt" viewBox="0 0 1500.000000 1500.000000"
 preserveAspectRatio="xMidYMid meet">

<g transform="translate(0.000000,1500.000000) scale(0.100000,-0.100000)"
fill="#000000" stroke="none">
<path d="M7750 9203 c-129 -23 -253 -76 -353 -151 l-68 -52 -149 0 c-140 0
-150 -1 -174 -22 -15 -13 -29 -37 -32 -55 -5 -27 -1 -37 24 -63 l30 -30 152 0
c152 0 181 -6 207 -39 22 -29 15 -80 -13 -106 l-27 -25 -259 0 c-312 0 -328
-4 -328 -91 0 -18 10 -39 25 -54 23 -24 28 -25 175 -25 147 0 152 -1 175 -25
38 -37 37 -88 -1 -122 -24 -22 -33 -23 -204 -23 -174 0 -180 -1 -206 -24 -39
-33 -39 -89 0 -122 27 -24 28 -24 281 -24 249 0 254 0 279 -22 38 -35 39 -86
1 -123 -23 -24 -30 -25 -150 -25 -126 0 -127 0 -156 -29 -17 -18 -29 -40 -29
-56 0 -16 12 -38 29 -56 l29 -29 186 0 c183 0 186 0 223 -26 65 -44 168 -93
242 -113 l70 -19 3 371 c3 331 5 376 20 404 59 108 236 110 296 4 21 -38 22
-47 22 -401 l0 -362 33 7 c56 11 209 92 274 145 125 101 228 265 269 425 25
99 23 275 -4 376 -78 293 -321 518 -619 575 -70 13 -216 17 -273 7z m211 -215
c50 -17 83 -45 109 -90 32 -57 26 -150 -13 -202 -36 -47 -94 -76 -152 -76 -60
0 -103 19 -142 63 -62 70 -66 162 -12 237 49 68 133 95 210 68z"/>
<path d="M6706 8978 c-15 -13 -29 -37 -32 -55 -5 -27 -1 -37 24 -63 28 -28 36
-30 101 -30 59 0 74 4 97 24 21 18 28 32 28 61 0 29 -7 43 -28 61 -23 20 -38
24 -96 24 -57 0 -73 -4 -94 -22z"/>
<path d="M6364 8637 c-39 -34 -39 -90 0 -123 25 -22 35 -24 152 -24 119 0 126
1 149 25 31 30 33 83 6 116 -18 23 -27 24 -149 27 -125 3 -130 3 -158 -21z"/>
<path d="M5637 6701 c-55 -36 -77 -93 -53 -140 18 -33 34 -41 84 -41 49 0 100
32 118 75 20 49 18 72 -11 100 -30 31 -96 34 -138 6z"/>
<path d="M5958 6602 c-5 -17 1 -20 45 -25 27 -4 52 -9 55 -12 8 -7 -161 -821
-173 -833 -1 -1 -27 -5 -56 -9 -53 -6 -69 -15 -69 -40 0 -10 53 -13 234 -13
204 0 235 2 240 16 11 29 6 32 -60 39 -61 6 -65 8 -61 28 3 12 18 84 33 159
l27 137 76 5 c121 9 192 25 258 57 194 94 260 358 114 456 -63 42 -95 47 -382
50 -266 4 -277 3 -281 -15z m479 -49 c61 -28 81 -100 58 -207 -26 -122 -91
-202 -187 -231 -67 -20 -118 -20 -118 0 0 15 86 415 96 449 5 16 13 18 62 12
30 -4 70 -14 89 -23z"/>
<path d="M5570 6351 c-103 -26 -146 -42 -148 -53 -2 -11 8 -17 38 -21 23 -3
43 -7 46 -9 4 -4 -45 -246 -89 -443 l-22 -100 -35 -3 c-39 -4 -60 -17 -60 -38
0 -11 34 -14 184 -14 159 0 185 2 190 16 9 23 -2 34 -35 34 -21 0 -29 5 -29
18 0 21 79 407 109 532 24 99 26 120 9 119 -7 0 -78 -18 -158 -38z"/>
<path d="M6987 6374 c-101 -24 -170 -73 -202 -144 -22 -48 -10 -86 30 -96 68
-17 122 30 153 132 19 63 25 72 49 77 45 9 94 -6 116 -36 19 -25 20 -32 9
-102 -15 -97 -23 -111 -69 -120 -90 -16 -252 -77 -303 -112 -69 -48 -104 -112
-104 -190 -1 -50 2 -57 35 -88 80 -72 191 -56 337 51 21 16 22 16 22 -8 0 -34
42 -74 85 -82 69 -13 168 22 201 71 23 36 7 47 -28 18 -43 -36 -63 -30 -62 20
0 22 19 132 43 244 32 152 41 216 36 248 -9 59 -52 107 -109 122 -59 15 -167
13 -239 -5z m123 -321 c0 -29 -53 -250 -62 -261 -19 -22 -85 -52 -115 -52 -77
0 -96 72 -45 170 32 64 78 103 152 130 62 22 70 23 70 13z"/>
<path d="M7662 6350 c-167 -47 -191 -65 -103 -77 23 -3 41 -11 41 -17 0 -9
-93 -448 -160 -762 l-22 -102 -41 -5 c-38 -5 -61 -22 -51 -39 3 -4 90 -8 194
-8 165 0 189 2 194 16 8 22 5 25 -43 31 -31 4 -41 10 -41 24 0 21 61 312 66
318 2 3 13 -5 24 -17 88 -94 272 -69 396 55 91 91 146 230 148 373 1 100 -32
175 -95 217 -38 25 -51 28 -123 28 -83 0 -127 -14 -202 -64 l-31 -21 1 42 c1
22 -3 42 -9 43 -5 2 -70 -14 -143 -35z m336 -66 c52 -36 65 -124 38 -254 -44
-202 -139 -307 -261 -284 -74 13 -73 5 -20 255 26 123 52 234 56 247 17 46
139 70 187 36z"/>
<path d="M8679 6375 c-179 -49 -310 -196 -341 -383 -30 -179 53 -304 223 -332
86 -15 164 -3 240 35 63 33 157 124 138 136 -8 5 -28 -6 -53 -27 -86 -73 -206
-81 -276 -18 -50 45 -74 137 -54 212 6 22 7 22 220 22 l214 0 12 28 c6 15 13
63 15 107 4 69 1 86 -19 125 -49 95 -179 134 -319 95z m115 -39 c58 -24 69
-106 29 -209 -9 -21 -24 -42 -34 -47 -16 -9 -219 -15 -219 -7 0 11 44 136 56
158 23 44 66 91 99 105 37 16 30 16 69 0z"/>
<path d="M9390 6380 c-14 -5 -78 -23 -142 -41 -71 -19 -118 -36 -118 -44 0
-14 30 -25 68 -25 27 0 29 12 -29 -260 -22 -102 -45 -209 -51 -237 -11 -52
-11 -53 -47 -53 -38 0 -61 -14 -61 -37 0 -11 41 -13 208 -11 199 3 207 4 207
23 0 17 -8 20 -52 23 -29 2 -53 7 -53 11 0 4 16 85 35 179 38 189 59 241 130
320 l46 52 33 -43 c27 -36 38 -42 73 -45 51 -4 85 16 107 63 23 48 20 73 -13
106 -66 65 -198 14 -281 -109 l-32 -47 8 60 c16 121 12 131 -36 115z"/>
</g>
</svg>
