<svg width="1114" height="847" xmlns="http://www.w3.org/2000/svg" version="1.0" preserveAspectRatio="xMidYMid meet">
 <g>
  <title>Layer 1</title>
  <g transform="translate(0.000000,1500.000000) scale(0.100000,-0.100000)" fill="#000000" id="svg_1">
   <path d="m4995,8400c-67,-10 -141,-59 -186,-122l-22,-30l47,36c112,85 220,66 333,-58c257,-281 308,-1002 94,-1333c-63,-97 -135,-143 -222,-143c-70,1 -164,64 -224,150c-28,41 -63,56 -51,23c21,-55 97,-171 143,-218c72,-74 135,-105 211,-105c143,0 255,117 331,345c16,50 33,111 36,138c8,55 -4,52 160,32c140,-18 406,-20 490,-4c103,19 165,61 165,112c0,72 -104,176 -263,262c-70,39 -105,40 -52,2c64,-46 125,-110 136,-144c10,-30 9,-39 -8,-62c-47,-62 -166,-87 -383,-77c-80,3 -161,8 -180,12l-35,6l-1,181c0,121 -7,216 -18,282c-77,457 -280,748 -501,715z" id="svg_2"/>
   <path d="m4663,8189c-75,-22 -99,-119 -44,-178c55,-59 155,-35 181,43c26,81 -53,159 -137,135z" id="svg_3"/>
   <path d="m6769,8071c-35,-35 -36,-42 -6,-76c43,-51 164,-41 182,15c16,50 -31,90 -105,90c-33,0 -48,-6 -71,-29z" id="svg_4"/>
   <path d="m7314,8030c-58,-9 -123,-28 -141,-43c-10,-7 -13,-108 -13,-443l0,-433l22,-15c23,-16 84,-21 125,-10c22,6 23,10 25,173l3,166l145,6c216,9 298,48 359,171c56,111 38,248 -42,331c-50,51 -95,73 -185,92c-71,15 -212,18 -298,5zm287,-111c55,-30 85,-76 94,-139c13,-92 -10,-167 -65,-213c-42,-36 -89,-47 -202,-47l-98,0l0,209l0,210l33,4c17,3 69,4 114,2c63,-2 91,-8 124,-26z" id="svg_5"/>
   <path d="m4150,7919c-71,-12 -155,-51 -170,-79c-17,-31 -6,-83 25,-124c24,-32 124,-116 137,-116c4,0 15,15 26,34l20,34l-40,38c-101,99 -89,164 38,204c63,20 52,23 -36,9z" id="svg_6"/>
   <path d="m9022,7845c-67,-19 -156,-61 -173,-82c-11,-13 -15,-100 -17,-427c-2,-226 0,-425 3,-443c5,-27 12,-34 45,-44c27,-8 53,-9 82,-3l43,9l3,138l3,138l32,-7c18,-4 75,-7 127,-6c167,0 276,63 336,195c26,56 29,73 29,167c0,141 -19,194 -100,276c-42,42 -75,66 -110,78c-69,25 -233,31 -303,11zm225,-96c84,-41 118,-115 117,-259c0,-123 -15,-174 -68,-226c-66,-66 -162,-81 -252,-38l-34,16l0,248l0,248l38,15c55,23 147,21 199,-4z" id="svg_7"/>
   <path d="m8228,7810c-68,-11 -150,-44 -174,-71c-17,-19 -17,-21 3,-47c25,-32 39,-32 120,2c175,74 293,27 293,-116c0,-67 12,-61 -158,-78c-171,-16 -270,-62 -302,-140c-18,-43 -9,-144 16,-178c33,-44 107,-88 172,-102c132,-28 329,1 412,60l30,21l0,237c0,209 -3,242 -19,278c-24,52 -83,101 -144,119c-64,19 -179,26 -249,15zm242,-504l0,-124l-34,-12c-19,-6 -66,-11 -105,-11c-114,-1 -161,38 -161,133c0,94 65,128 263,136l37,2l0,-124z" id="svg_8"/>
   <path d="m9957,7810c-162,-28 -272,-155 -284,-328c-17,-247 120,-396 377,-409c109,-6 195,11 260,52c46,29 50,52 15,85l-25,23l-71,-36c-61,-32 -81,-37 -138,-37c-119,0 -195,55 -234,171c-8,24 -14,45 -13,46c1,1 103,16 226,33c124,16 242,35 262,41c47,12 62,38 53,92c-23,139 -124,239 -270,266c-65,12 -88,12 -158,1zm140,-91c46,-17 92,-69 108,-123c26,-86 35,-80 -157,-105c-95,-12 -181,-25 -190,-27c-15,-4 -18,1 -18,29c0,51 27,132 56,167c51,61 133,85 201,59z" id="svg_9"/>
   <path d="m10723,7795c-71,-19 -148,-60 -167,-87c-14,-19 -16,-65 -16,-314l0,-291l25,-11c29,-13 67,-15 114,-6l31,7l0,294l0,294l38,16c48,21 144,30 206,21c33,-5 54,-3 63,4c21,17 11,61 -17,75c-34,17 -211,16 -277,-2z" id="svg_10"/>
   <path d="m6778,7793c-17,-4 -18,-29 -18,-343c0,-339 0,-339 22,-354c23,-16 84,-21 126,-10l22,6l0,344l0,344l-26,10c-25,10 -94,12 -126,3z" id="svg_11"/>
   <path d="m4302,7694c-46,-23 -89,-77 -102,-125c-21,-78 6,-152 76,-205c33,-26 46,-29 110,-29c66,0 75,3 112,32l41,33l43,-19c126,-54 626,-201 684,-201c9,0 26,67 20,77c-1,1 -55,14 -121,28c-137,31 -405,110 -514,153l-74,29l-2,55c-2,65 -24,108 -78,151c-31,26 -48,32 -100,34c-43,3 -72,-1 -95,-13z" id="svg_12"/>
   <path d="m5745,7703c-96,-25 -124,-146 -49,-212c62,-55 150,-37 189,39c19,37 19,64 -1,105c-24,52 -86,81 -139,68z" id="svg_13"/>
   <path d="m4691,7179c-52,-48 -51,-120 1,-164c27,-23 39,-26 75,-22c51,5 71,20 90,66c19,44 9,84 -29,116c-39,33 -104,35 -137,4z" id="svg_14"/>
  </g>
 </g>

</svg>