<?xml version="1.0" standalone="no"?>
<!DOCTYPE svg PUBLIC "-//W3C//DTD SVG 20010904//EN"
 "http://www.w3.org/TR/2001/REC-SVG-20010904/DTD/svg10.dtd">
<svg version="1.0" xmlns="http://www.w3.org/2000/svg"
 width="1500.000000pt" height="1500.000000pt" viewBox="0 0 1500.000000 1500.000000"
 preserveAspectRatio="xMidYMid meet">

<g transform="translate(0.000000,1500.000000) scale(0.100000,-0.100000)"
fill="#000000" stroke="none">
<path d="M7195 9556 c-42 -18 -83 -69 -91 -113 -10 -52 22 -121 69 -152 l37
-24 0 -213 0 -213 -257 -558 -258 -558 0 -110 c0 -102 2 -114 29 -168 36 -71
108 -140 184 -175 l57 -27 535 0 535 0 57 27 c76 35 148 104 183 175 23 46 29
75 33 144 3 54 0 101 -8 125 -7 22 -124 283 -261 582 l-249 543 0 213 0 213
39 26 c74 49 90 151 34 217 -49 59 -56 60 -360 60 -208 -1 -286 -4 -308 -14z
m577 -103 c24 -21 23 -60 -1 -73 -11 -5 -69 -10 -130 -10 -119 0 -141 -9 -141
-55 0 -38 35 -55 112 -55 l68 0 0 -215 0 -216 263 -572 262 -572 0 -75 c-1
-89 -21 -136 -85 -194 -82 -74 -57 -71 -620 -71 -563 0 -538 -3 -620 71 -64
58 -84 105 -85 194 l0 75 263 572 262 572 0 250 c0 272 0 274 -58 287 -38 9
-52 23 -52 50 0 50 24 54 294 54 218 0 252 -2 268 -17z"/>
<path d="M7385 8329 c-16 -5 -50 -20 -75 -33 -25 -13 -63 -29 -86 -35 l-40
-11 -137 -297 c-152 -329 -159 -357 -114 -424 46 -70 37 -69 567 -69 530 0
521 -1 567 69 44 66 36 100 -93 382 -64 140 -129 283 -145 318 -27 60 -30 63
-47 48 -9 -8 -35 -20 -58 -26 -48 -13 -91 -3 -145 35 -70 48 -131 62 -194 43z
m116 -222 c136 -92 11 -292 -129 -207 -82 50 -76 178 11 215 46 20 79 18 118
-8z m296 -349 c33 -30 31 -80 -3 -107 -35 -28 -69 -26 -99 4 -69 68 31 170
102 103z"/>
<path d="M5435 6709 c-37 -21 -55 -53 -55 -97 0 -54 12 -77 52 -98 79 -41 178
12 178 96 0 60 -41 101 -106 107 -27 2 -58 -2 -69 -8z"/>
<path d="M5830 6110 l0 -510 100 0 100 0 0 180 0 180 88 0 c171 0 281 33 357
107 79 76 111 205 81 323 -23 89 -62 140 -141 182 -77 41 -129 48 -362 48
l-223 0 0 -510z m457 327 c89 -47 108 -172 37 -256 -34 -41 -82 -54 -194 -55
l-95 -1 -3 169 -2 169 112 -5 c79 -3 123 -10 145 -21z"/>
<path d="M6879 6380 c-52 -13 -139 -48 -176 -71 l-33 -20 24 -47 c46 -89 42
-87 117 -52 145 67 259 40 271 -65 l3 -29 -78 -12 c-265 -41 -381 -137 -364
-302 20 -196 239 -265 419 -133 38 28 43 30 50 14 3 -10 7 -28 7 -40 1 -22 5
-23 86 -23 l85 0 0 253 c0 151 -5 277 -11 311 -18 86 -63 153 -129 190 -48 27
-65 31 -145 33 -49 1 -106 -2 -126 -7z m209 -492 l-3 -81 -49 -34 c-111 -76
-228 -19 -192 95 10 30 82 70 158 87 96 20 89 25 86 -67z"/>
<path d="M7816 6374 c-21 -7 -60 -29 -87 -49 l-49 -35 -6 40 -7 40 -83 0 -84
0 0 -535 0 -535 100 0 100 0 0 175 c0 161 5 197 26 164 3 -6 30 -22 58 -35 61
-29 131 -31 202 -7 70 24 164 119 193 197 89 239 10 520 -163 579 -59 20 -147
21 -200 1z m115 -171 c60 -35 91 -162 70 -277 -23 -126 -77 -180 -172 -174
-35 3 -69 13 -92 27 l-37 23 2 176 3 177 49 33 c57 38 128 44 177 15z"/>
<path d="M8582 6369 c-225 -89 -314 -414 -171 -628 47 -70 120 -123 203 -147
106 -30 270 -5 357 53 l26 18 -34 62 -34 62 -52 -25 c-38 -17 -70 -24 -115
-24 -119 0 -194 55 -217 158 l-7 32 240 0 240 0 6 53 c12 105 -25 240 -87 312
-14 17 -49 44 -79 60 -72 39 -196 46 -276 14z m197 -152 c37 -19 63 -60 68
-111 l6 -46 -157 0 c-155 0 -156 0 -156 23 0 34 41 99 79 124 39 26 119 31
160 10z"/>
<path d="M9523 6376 c-40 -18 -120 -91 -128 -117 -10 -31 -25 -22 -25 15 0 18
-3 48 -6 65 l-6 31 -84 0 -84 0 0 -385 0 -385 105 0 105 0 0 239 0 239 33 44
c54 71 91 90 164 86 l61 -4 16 85 c8 47 13 87 10 90 -12 13 -131 10 -161 -3z"/>
<path d="M5390 5985 l0 -385 105 0 105 0 0 385 0 385 -105 0 -105 0 0 -385z"/>
</g>
</svg>
