{
	"asset":{
		"generator":"Khronos glTF Blender I/O v3.6.27",
		"version":"2.0"
	},
	"extensionsUsed":[
		"KHR_materials_clearcoat",
		"KHR_materials_transmission",
		"KHR_materials_specular",
		"KHR_materials_ior",
		"KHR_lights_punctual"
	],
	"extensionsRequired":[
		"KHR_lights_punctual"
	],
	"extensions":{
		"KHR_lights_punctual":{
			"lights":[
				{
					"color":[
						1,
						1,
						1
					],
					"intensity":6,
					"type":"point",
					"name":"Light"
				},
				{
					"color":[
						1,
						1,
						1
					],
					"intensity":6,
					"type":"point",
					"name":"Light.001"
				},
				{
					"color":[
						1,
						1,
						1
					],
					"intensity":3,
					"type":"directional",
					"name":"Light.002"
				}
			]
		}
	},
	"scene":0,
	"scenes":[
		{
			"name":"Scene",
			"nodes":[
				0,
				1,
				2,
				3,
				4,
				5,
				6,
				7,
				8,
				9,
				10,
				11,
				12,
				13,
				14,
				15,
				16,
				17,
				18
			]
		}
	],
	"nodes":[
		{
			"mesh":0,
			"name":"Cube",
			"translation":[
				-0.839209794998169,
				-5.242110729217529,
				-4.261571884155273
			]
		},
		{
			"extensions":{
				"KHR_lights_punctual":{
					"light":0
				}
			},
			"name":"Light",
			"rotation":[
				-0.28416621685028076,
				0.7269423604011536,
				0.34203386306762695,
				0.5232754349708557
			],
			"scale":[
				2.69171404838562,
				2.69171404838562,
				2.691713809967041
			],
			"translation":[
				-4.280068397521973,
				17.80030632019043,
				7.761912822723389
			]
		},
		{
			"mesh":1,
			"name":"Cube.001",
			"translation":[
				-3.902275562286377,
				6.086313247680664,
				1.5878628492355347
			]
		},
		{
			"mesh":2,
			"name":"Cube.002",
			"translation":[
				-0.5068819522857666,
				6.763740539550781,
				-6.412844181060791
			]
		},
		{
			"mesh":3,
			"name":"sphere1",
			"translation":[
				-2.4426188468933105,
				-3.5412025451660156,
				4.077495098114014
			]
		},
		{
			"mesh":4,
			"name":"spheere2",
			"translation":[
				-6.056344509124756,
				1.2407735586166382,
				-2.253715991973877
			]
		},
		{
			"mesh":5,
			"name":"cone",
			"translation":[
				5.54209041595459,
				0,
				-3.1552023887634277
			]
		},
		{
			"mesh":6,
			"name":"sphere3",
			"translation":[
				2.6102120876312256,
				5.010624885559082,
				-3.6059441566467285
			]
		},
		{
			"mesh":7,
			"name":"obj1",
			"translation":[
				-3.327911376953125,
				2.050513744354248,
				-1.336707592010498
			]
		},
		{
			"mesh":8,
			"name":"center ball"
		},
		{
			"extensions":{
				"KHR_lights_punctual":{
					"light":1
				}
			},
			"name":"Light.001",
			"rotation":[
				-0.28416627645492554,
				0.7269423007965088,
				0.34203392267227173,
				0.5232754945755005
			],
			"translation":[
				-0.025977730751037598,
				-7.357958793640137,
				3.5848331451416016
			]
		},
		{
			"extensions":{
				"KHR_lights_punctual":{
					"light":2
				}
			},
			"name":"Light.002",
			"rotation":[
				-0.037987854331731796,
				0.6245496273040771,
				0.5079001784324646,
				0.592057466506958
			],
			"translation":[
				13.697251319885254,
				6.1568922996521,
				3.5848348140716553
			]
		},
		{
			"mesh":9,
			"name":"obj2",
			"translation":[
				5.272581100463867,
				0,
				0
			]
		},
		{
			"mesh":10,
			"name":"i",
			"rotation":[
				0.7071068286895752,
				0,
				0,
				0.7071067690849304
			],
			"scale":[
				2.69171404838562,
				2.69171404838562,
				2.69171404838562
			],
			"translation":[
				-5.285016059875488,
				-1.940544843673706,
				-0.7656399607658386
			]
		},
		{
			"mesh":11,
			"name":"P1",
			"rotation":[
				0.6003795266151428,
				0.4718589782714844,
				0.373556524515152,
				0.5266394019126892
			],
			"scale":[
				2.69171404838562,
				2.69171404838562,
				2.69171404838562
			],
			"translation":[
				-3.2219152450561523,
				2.928623676300049,
				-0.7656393051147461
			]
		},
		{
			"mesh":12,
			"name":"a",
			"rotation":[
				0.6970539093017578,
				0.5208186507225037,
				0.11881016194820404,
				0.47827592492103577
			],
			"scale":[
				2.69171404838562,
				2.69171404838562,
				2.69171404838562
			],
			"translation":[
				-0.3421747088432312,
				3.4159016609191895,
				-1.3890650272369385
			]
		},
		{
			"mesh":13,
			"name":"p",
			"rotation":[
				0.6236060261726379,
				-0.09492603689432144,
				-0.33334001898765564,
				0.7007061839103699
			],
			"scale":[
				2.69171404838562,
				2.69171404838562,
				2.69171404838562
			],
			"translation":[
				0.9985358715057373,
				-3.2124783992767334,
				-1.2170864343643188
			]
		},
		{
			"mesh":14,
			"name":"e",
			"rotation":[
				0.7030027508735657,
				-0.5886459946632385,
				-0.07607408612966537,
				0.39178547263145447
			],
			"scale":[
				2.69171404838562,
				2.69171404838562,
				2.69171404838562
			],
			"translation":[
				1.9755475521087646,
				0.10529424250125885,
				-0.7656396627426147
			]
		},
		{
			"mesh":15,
			"name":"r",
			"rotation":[
				0.6695915460586548,
				-0.01774207502603531,
				-0.22726017236709595,
				0.7068841457366943
			],
			"scale":[
				2.69171404838562,
				2.69171404838562,
				2.69171404838562
			],
			"translation":[
				3.928797721862793,
				3.4696426391601562,
				-0.7656392455101013
			]
		}
	],
	"materials":[
		{
			"doubleSided":true,
			"extensions":{
				"KHR_materials_clearcoat":{
					"clearcoatFactor":0.5,
					"clearcoatRoughnessFactor":0.5
				},
				"KHR_materials_transmission":{
					"transmissionFactor":0.5
				},
				"KHR_materials_specular":{
					"specularColorFactor":[
						1.0928394036103495,
						1.0928394036103495,
						1.0928394036103495
					]
				},
				"KHR_materials_ior":{
					"ior":1.4500000476837158
				}
			},
			"name":"\u6750\u8d28",
			"pbrMetallicRoughness":{
				"baseColorFactor":[
					0.800000011920929,
					0.800000011920929,
					0.800000011920929,
					1
				],
				"metallicFactor":0,
				"roughnessFactor":0.5
			}
		}
	],
	"meshes":[
		{
			"name":"Cube",
			"primitives":[
				{
					"attributes":{
						"POSITION":0,
						"NORMAL":1,
						"TEXCOORD_0":2
					},
					"indices":3,
					"material":0
				}
			]
		},
		{
			"name":"Cube.003",
			"primitives":[
				{
					"attributes":{
						"POSITION":4,
						"NORMAL":5,
						"TEXCOORD_0":6
					},
					"indices":3,
					"material":0
				}
			]
		},
		{
			"name":"Cube.004",
			"primitives":[
				{
					"attributes":{
						"POSITION":7,
						"NORMAL":8,
						"TEXCOORD_0":9
					},
					"indices":10,
					"material":0
				}
			]
		},
		{
			"name":"\u7403\u4f53",
			"primitives":[
				{
					"attributes":{
						"POSITION":11,
						"NORMAL":12,
						"TEXCOORD_0":13
					},
					"indices":14,
					"material":0
				}
			]
		},
		{
			"name":"\u7403\u4f53.001",
			"primitives":[
				{
					"attributes":{
						"POSITION":15,
						"NORMAL":16,
						"TEXCOORD_0":17
					},
					"indices":14,
					"material":0
				}
			]
		},
		{
			"name":"\u9525\u4f53",
			"primitives":[
				{
					"attributes":{
						"POSITION":18,
						"NORMAL":19,
						"TEXCOORD_0":20
					},
					"indices":21,
					"material":0
				}
			]
		},
		{
			"name":"\u7403\u4f53.002",
			"primitives":[
				{
					"attributes":{
						"POSITION":22,
						"NORMAL":23,
						"TEXCOORD_0":24
					},
					"indices":14,
					"material":0
				}
			]
		},
		{
			"name":"\u5e73\u9762.001",
			"primitives":[
				{
					"attributes":{
						"POSITION":25,
						"NORMAL":26,
						"TEXCOORD_0":27,
						"TEXCOORD_1":28
					},
					"indices":29,
					"material":0
				}
			]
		},
		{
			"name":"\u68f1\u89d2\u7403",
			"primitives":[
				{
					"attributes":{
						"POSITION":30,
						"NORMAL":31,
						"TEXCOORD_0":32
					},
					"indices":33,
					"material":0
				}
			]
		},
		{
			"name":"\u5e73\u9762.002",
			"primitives":[
				{
					"attributes":{
						"POSITION":34,
						"NORMAL":35,
						"TEXCOORD_0":36,
						"TEXCOORD_1":37
					},
					"indices":38,
					"material":0
				}
			]
		},
		{
			"name":"\u6587\u672c.002",
			"primitives":[
				{
					"attributes":{
						"POSITION":39,
						"NORMAL":40,
						"TEXCOORD_0":41
					},
					"indices":42,
					"material":0
				}
			]
		},
		{
			"name":"\u6587\u672c.003",
			"primitives":[
				{
					"attributes":{
						"POSITION":43,
						"NORMAL":44,
						"TEXCOORD_0":45
					},
					"indices":46,
					"material":0
				}
			]
		},
		{
			"name":"\u6587\u672c.004",
			"primitives":[
				{
					"attributes":{
						"POSITION":47,
						"NORMAL":48,
						"TEXCOORD_0":49
					},
					"indices":50,
					"material":0
				}
			]
		},
		{
			"name":"\u6587\u672c.005",
			"primitives":[
				{
					"attributes":{
						"POSITION":51,
						"NORMAL":52,
						"TEXCOORD_0":53
					},
					"indices":54,
					"material":0
				}
			]
		},
		{
			"name":"\u6587\u672c.006",
			"primitives":[
				{
					"attributes":{
						"POSITION":55,
						"NORMAL":56,
						"TEXCOORD_0":57
					},
					"indices":58,
					"material":0
				}
			]
		},
		{
			"name":"\u6587\u672c.007",
			"primitives":[
				{
					"attributes":{
						"POSITION":59,
						"NORMAL":60,
						"TEXCOORD_0":61
					},
					"indices":62,
					"material":0
				}
			]
		}
	],
	"accessors":[
		{
			"bufferView":0,
			"componentType":5126,
			"count":24,
			"max":[
				1.0665932893753052,
				1.0665926933288574,
				0.863324761390686
			],
			"min":[
				-1.0665932893753052,
				-1.0665937662124634,
				-0.8633251786231995
			],
			"type":"VEC3"
		},
		{
			"bufferView":1,
			"componentType":5126,
			"count":24,
			"type":"VEC3"
		},
		{
			"bufferView":2,
			"componentType":5126,
			"count":24,
			"type":"VEC2"
		},
		{
			"bufferView":3,
			"componentType":5123,
			"count":36,
			"type":"SCALAR"
		},
		{
			"bufferView":4,
			"componentType":5126,
			"count":24,
			"max":[
				0.6692032814025879,
				0.6692023277282715,
				0.512761116027832
			],
			"min":[
				-0.6692023277282715,
				-0.6692028045654297,
				-0.5127613544464111
			],
			"type":"VEC3"
		},
		{
			"bufferView":5,
			"componentType":5126,
			"count":24,
			"type":"VEC3"
		},
		{
			"bufferView":6,
			"componentType":5126,
			"count":24,
			"type":"VEC2"
		},
		{
			"bufferView":7,
			"componentType":5126,
			"count":24,
			"max":[
				0.561211109161377,
				0.5612115859985352,
				0.41962242126464844
			],
			"min":[
				-0.561211109161377,
				-0.5612101554870605,
				-0.41962289810180664
			],
			"type":"VEC3"
		},
		{
			"bufferView":8,
			"componentType":5126,
			"count":24,
			"type":"VEC3"
		},
		{
			"bufferView":9,
			"componentType":5126,
			"count":24,
			"type":"VEC2"
		},
		{
			"bufferView":10,
			"componentType":5123,
			"count":36,
			"type":"SCALAR"
		},
		{
			"bufferView":11,
			"componentType":5126,
			"count":144,
			"max":[
				0.9238805770874023,
				1.0000009536743164,
				0.9238777160644531
			],
			"min":[
				-0.9238786697387695,
				-0.9999990463256836,
				-0.9238810539245605
			],
			"type":"VEC3"
		},
		{
			"bufferView":12,
			"componentType":5126,
			"count":144,
			"type":"VEC3"
		},
		{
			"bufferView":13,
			"componentType":5126,
			"count":144,
			"type":"VEC2"
		},
		{
			"bufferView":14,
			"componentType":5123,
			"count":192,
			"type":"SCALAR"
		},
		{
			"bufferView":15,
			"componentType":5126,
			"count":144,
			"max":[
				0.4478335380554199,
				0.4847346544265747,
				0.447837233543396
			],
			"min":[
				-0.44784021377563477,
				-0.4847356081008911,
				-0.44783639907836914
			],
			"type":"VEC3"
		},
		{
			"bufferView":16,
			"componentType":5126,
			"count":144,
			"type":"VEC3"
		},
		{
			"bufferView":17,
			"componentType":5126,
			"count":144,
			"type":"VEC2"
		},
		{
			"bufferView":18,
			"componentType":5126,
			"count":32,
			"max":[
				0.8020963668823242,
				1.1189579963684082,
				0.9999997615814209
			],
			"min":[
				-1.381457805633545,
				-0.9169399738311768,
				-1.0000004768371582
			],
			"type":"VEC3"
		},
		{
			"bufferView":19,
			"componentType":5126,
			"count":32,
			"type":"VEC3"
		},
		{
			"bufferView":20,
			"componentType":5126,
			"count":32,
			"type":"VEC2"
		},
		{
			"bufferView":21,
			"componentType":5123,
			"count":42,
			"type":"SCALAR"
		},
		{
			"bufferView":22,
			"componentType":5126,
			"count":144,
			"max":[
				0.44783663749694824,
				0.48473453521728516,
				0.44783663749694824
			],
			"min":[
				-0.44783711433410645,
				-0.48473596572875977,
				-0.44783735275268555
			],
			"type":"VEC3"
		},
		{
			"bufferView":23,
			"componentType":5126,
			"count":144,
			"type":"VEC3"
		},
		{
			"bufferView":24,
			"componentType":5126,
			"count":144,
			"type":"VEC2"
		},
		{
			"bufferView":25,
			"componentType":5126,
			"count":52,
			"max":[
				1.266099452972412,
				0.6615180969238281,
				0.7154645919799805
			],
			"min":[
				-0.6546030044555664,
				-1.2762197256088257,
				-0.7867279052734375
			],
			"type":"VEC3"
		},
		{
			"bufferView":26,
			"componentType":5126,
			"count":52,
			"type":"VEC3"
		},
		{
			"bufferView":27,
			"componentType":5126,
			"count":52,
			"type":"VEC2"
		},
		{
			"bufferView":28,
			"componentType":5126,
			"count":52,
			"type":"VEC2"
		},
		{
			"bufferView":29,
			"componentType":5123,
			"count":78,
			"type":"SCALAR"
		},
		{
			"bufferView":30,
			"componentType":5126,
			"count":960,
			"max":[
				1.7157360315322876,
				1.7157360315322876,
				1.7157357931137085
			],
			"min":[
				-1.715735912322998,
				-1.7157360315322876,
				-1.7157360315322876
			],
			"type":"VEC3"
		},
		{
			"bufferView":31,
			"componentType":5126,
			"count":960,
			"type":"VEC3"
		},
		{
			"bufferView":32,
			"componentType":5126,
			"count":960,
			"type":"VEC2"
		},
		{
			"bufferView":33,
			"componentType":5123,
			"count":960,
			"type":"SCALAR"
		},
		{
			"bufferView":34,
			"componentType":5126,
			"count":52,
			"max":[
				1.2685456275939941,
				2.104414939880371,
				0.9683056473731995
			],
			"min":[
				-1.375556468963623,
				-1.0942909717559814,
				-1.8824701309204102
			],
			"type":"VEC3"
		},
		{
			"bufferView":35,
			"componentType":5126,
			"count":52,
			"type":"VEC3"
		},
		{
			"bufferView":36,
			"componentType":5126,
			"count":52,
			"type":"VEC2"
		},
		{
			"bufferView":37,
			"componentType":5126,
			"count":52,
			"type":"VEC2"
		},
		{
			"bufferView":38,
			"componentType":5123,
			"count":78,
			"type":"SCALAR"
		},
		{
			"bufferView":39,
			"componentType":5126,
			"count":212,
			"max":[
				0.16300000250339508,
				0.10000000149011612,
				0
			],
			"min":[
				0.05700000375509262,
				-0.10000000149011612,
				-0.6380000114440918
			],
			"type":"VEC3"
		},
		{
			"bufferView":40,
			"componentType":5126,
			"count":212,
			"type":"VEC3"
		},
		{
			"bufferView":41,
			"componentType":5126,
			"count":212,
			"type":"VEC2"
		},
		{
			"bufferView":42,
			"componentType":5123,
			"count":600,
			"type":"SCALAR"
		},
		{
			"bufferView":43,
			"componentType":5126,
			"count":228,
			"max":[
				0.5,
				0.10000000149011612,
				0
			],
			"min":[
				0.07000000029802322,
				-0.10000000149011612,
				-0.6820000410079956
			],
			"type":"VEC3"
		},
		{
			"bufferView":44,
			"componentType":5126,
			"count":228,
			"type":"VEC3"
		},
		{
			"bufferView":45,
			"componentType":5126,
			"count":228,
			"type":"VEC2"
		},
		{
			"bufferView":46,
			"componentType":5123,
			"count":672,
			"type":"SCALAR"
		},
		{
			"bufferView":47,
			"componentType":5126,
			"count":700,
			"max":[
				0.41100001335144043,
				0.10000000149011612,
				0.009000000543892384
			],
			"min":[
				0.026000000536441803,
				-0.10000000149011612,
				-0.4580000340938568
			],
			"type":"VEC3"
		},
		{
			"bufferView":48,
			"componentType":5126,
			"count":700,
			"type":"VEC3"
		},
		{
			"bufferView":49,
			"componentType":5126,
			"count":700,
			"type":"VEC2"
		},
		{
			"bufferView":50,
			"componentType":5123,
			"count":2088,
			"type":"SCALAR"
		},
		{
			"bufferView":51,
			"componentType":5126,
			"count":316,
			"max":[
				0.46400001645088196,
				0.10000000149011612,
				0.23000000417232513
			],
			"min":[
				0.05700000375509262,
				-0.10000000149011612,
				-0.4490000307559967
			],
			"type":"VEC3"
		},
		{
			"bufferView":52,
			"componentType":5126,
			"count":316,
			"type":"VEC3"
		},
		{
			"bufferView":53,
			"componentType":5126,
			"count":316,
			"type":"VEC2"
		},
		{
			"bufferView":54,
			"componentType":5123,
			"count":936,
			"type":"SCALAR"
		},
		{
			"bufferView":55,
			"componentType":5126,
			"count":400,
			"max":[
				0.44600000977516174,
				0.10000000149011612,
				0.009000000543892384
			],
			"min":[
				0.04100000113248825,
				-0.10000000149011612,
				-0.4580000340938568
			],
			"type":"VEC3"
		},
		{
			"bufferView":56,
			"componentType":5126,
			"count":400,
			"type":"VEC3"
		},
		{
			"bufferView":57,
			"componentType":5126,
			"count":400,
			"type":"VEC2"
		},
		{
			"bufferView":58,
			"componentType":5123,
			"count":1188,
			"type":"SCALAR"
		},
		{
			"bufferView":59,
			"componentType":5126,
			"count":222,
			"max":[
				0.3970000147819519,
				0.10000000149011612,
				0
			],
			"min":[
				0.0690000057220459,
				-0.10000000149011612,
				-0.4580000340938568
			],
			"type":"VEC3"
		},
		{
			"bufferView":60,
			"componentType":5126,
			"count":222,
			"type":"VEC3"
		},
		{
			"bufferView":61,
			"componentType":5126,
			"count":222,
			"type":"VEC2"
		},
		{
			"bufferView":62,
			"componentType":5123,
			"count":648,
			"type":"SCALAR"
		}
	],
	"bufferViews":[
		{
			"buffer":0,
			"byteLength":288,
			"byteOffset":0,
			"target":34962
		},
		{
			"buffer":0,
			"byteLength":288,
			"byteOffset":288,
			"target":34962
		},
		{
			"buffer":0,
			"byteLength":192,
			"byteOffset":576,
			"target":34962
		},
		{
			"buffer":0,
			"byteLength":72,
			"byteOffset":768,
			"target":34963
		},
		{
			"buffer":0,
			"byteLength":288,
			"byteOffset":840,
			"target":34962
		},
		{
			"buffer":0,
			"byteLength":288,
			"byteOffset":1128,
			"target":34962
		},
		{
			"buffer":0,
			"byteLength":192,
			"byteOffset":1416,
			"target":34962
		},
		{
			"buffer":0,
			"byteLength":288,
			"byteOffset":1608,
			"target":34962
		},
		{
			"buffer":0,
			"byteLength":288,
			"byteOffset":1896,
			"target":34962
		},
		{
			"buffer":0,
			"byteLength":192,
			"byteOffset":2184,
			"target":34962
		},
		{
			"buffer":0,
			"byteLength":72,
			"byteOffset":2376,
			"target":34963
		},
		{
			"buffer":0,
			"byteLength":1728,
			"byteOffset":2448,
			"target":34962
		},
		{
			"buffer":0,
			"byteLength":1728,
			"byteOffset":4176,
			"target":34962
		},
		{
			"buffer":0,
			"byteLength":1152,
			"byteOffset":5904,
			"target":34962
		},
		{
			"buffer":0,
			"byteLength":384,
			"byteOffset":7056,
			"target":34963
		},
		{
			"buffer":0,
			"byteLength":1728,
			"byteOffset":7440,
			"target":34962
		},
		{
			"buffer":0,
			"byteLength":1728,
			"byteOffset":9168,
			"target":34962
		},
		{
			"buffer":0,
			"byteLength":1152,
			"byteOffset":10896,
			"target":34962
		},
		{
			"buffer":0,
			"byteLength":384,
			"byteOffset":12048,
			"target":34962
		},
		{
			"buffer":0,
			"byteLength":384,
			"byteOffset":12432,
			"target":34962
		},
		{
			"buffer":0,
			"byteLength":256,
			"byteOffset":12816,
			"target":34962
		},
		{
			"buffer":0,
			"byteLength":84,
			"byteOffset":13072,
			"target":34963
		},
		{
			"buffer":0,
			"byteLength":1728,
			"byteOffset":13156,
			"target":34962
		},
		{
			"buffer":0,
			"byteLength":1728,
			"byteOffset":14884,
			"target":34962
		},
		{
			"buffer":0,
			"byteLength":1152,
			"byteOffset":16612,
			"target":34962
		},
		{
			"buffer":0,
			"byteLength":624,
			"byteOffset":17764,
			"target":34962
		},
		{
			"buffer":0,
			"byteLength":624,
			"byteOffset":18388,
			"target":34962
		},
		{
			"buffer":0,
			"byteLength":416,
			"byteOffset":19012,
			"target":34962
		},
		{
			"buffer":0,
			"byteLength":416,
			"byteOffset":19428,
			"target":34962
		},
		{
			"buffer":0,
			"byteLength":156,
			"byteOffset":19844,
			"target":34963
		},
		{
			"buffer":0,
			"byteLength":11520,
			"byteOffset":20000,
			"target":34962
		},
		{
			"buffer":0,
			"byteLength":11520,
			"byteOffset":31520,
			"target":34962
		},
		{
			"buffer":0,
			"byteLength":7680,
			"byteOffset":43040,
			"target":34962
		},
		{
			"buffer":0,
			"byteLength":1920,
			"byteOffset":50720,
			"target":34963
		},
		{
			"buffer":0,
			"byteLength":624,
			"byteOffset":52640,
			"target":34962
		},
		{
			"buffer":0,
			"byteLength":624,
			"byteOffset":53264,
			"target":34962
		},
		{
			"buffer":0,
			"byteLength":416,
			"byteOffset":53888,
			"target":34962
		},
		{
			"buffer":0,
			"byteLength":416,
			"byteOffset":54304,
			"target":34962
		},
		{
			"buffer":0,
			"byteLength":156,
			"byteOffset":54720,
			"target":34963
		},
		{
			"buffer":0,
			"byteLength":2544,
			"byteOffset":54876,
			"target":34962
		},
		{
			"buffer":0,
			"byteLength":2544,
			"byteOffset":57420,
			"target":34962
		},
		{
			"buffer":0,
			"byteLength":1696,
			"byteOffset":59964,
			"target":34962
		},
		{
			"buffer":0,
			"byteLength":1200,
			"byteOffset":61660,
			"target":34963
		},
		{
			"buffer":0,
			"byteLength":2736,
			"byteOffset":62860,
			"target":34962
		},
		{
			"buffer":0,
			"byteLength":2736,
			"byteOffset":65596,
			"target":34962
		},
		{
			"buffer":0,
			"byteLength":1824,
			"byteOffset":68332,
			"target":34962
		},
		{
			"buffer":0,
			"byteLength":1344,
			"byteOffset":70156,
			"target":34963
		},
		{
			"buffer":0,
			"byteLength":8400,
			"byteOffset":71500,
			"target":34962
		},
		{
			"buffer":0,
			"byteLength":8400,
			"byteOffset":79900,
			"target":34962
		},
		{
			"buffer":0,
			"byteLength":5600,
			"byteOffset":88300,
			"target":34962
		},
		{
			"buffer":0,
			"byteLength":4176,
			"byteOffset":93900,
			"target":34963
		},
		{
			"buffer":0,
			"byteLength":3792,
			"byteOffset":98076,
			"target":34962
		},
		{
			"buffer":0,
			"byteLength":3792,
			"byteOffset":101868,
			"target":34962
		},
		{
			"buffer":0,
			"byteLength":2528,
			"byteOffset":105660,
			"target":34962
		},
		{
			"buffer":0,
			"byteLength":1872,
			"byteOffset":108188,
			"target":34963
		},
		{
			"buffer":0,
			"byteLength":4800,
			"byteOffset":110060,
			"target":34962
		},
		{
			"buffer":0,
			"byteLength":4800,
			"byteOffset":114860,
			"target":34962
		},
		{
			"buffer":0,
			"byteLength":3200,
			"byteOffset":119660,
			"target":34962
		},
		{
			"buffer":0,
			"byteLength":2376,
			"byteOffset":122860,
			"target":34963
		},
		{
			"buffer":0,
			"byteLength":2664,
			"byteOffset":125236,
			"target":34962
		},
		{
			"buffer":0,
			"byteLength":2664,
			"byteOffset":127900,
			"target":34962
		},
		{
			"buffer":0,
			"byteLength":1776,
			"byteOffset":130564,
			"target":34962
		},
		{
			"buffer":0,
			"byteLength":1296,
			"byteOffset":132340,
			"target":34963
		}
	],
	"buffers":[
		{
			"byteLength":133636,
			"uri":"data:application/octet-stream;base64,"
		}
	]
}
