
<svg version="1.0" xmlns="http://www.w3.org/2000/svg"
 width="1500.000000pt" height="1500.000000pt" viewBox="0 0 1500.000000 1500.000000"
 preserveAspectRatio="xMidYMid meet">

<g transform="translate(0.000000,1500.000000) scale(0.100000,-0.100000)"
fill="#000000" stroke="none">
<path d="M4995 8400 c-67 -10 -141 -59 -186 -122 l-22 -30 47 36 c112 85 220
66 333 -58 257 -281 308 -1002 94 -1333 -63 -97 -135 -143 -222 -143 -70 1
-164 64 -224 150 -28 41 -63 56 -51 23 21 -55 97 -171 143 -218 72 -74 135
-105 211 -105 143 0 255 117 331 345 16 50 33 111 36 138 8 55 -4 52 160 32
140 -18 406 -20 490 -4 103 19 165 61 165 112 0 72 -104 176 -263 262 -70 39
-105 40 -52 2 64 -46 125 -110 136 -144 10 -30 9 -39 -8 -62 -47 -62 -166 -87
-383 -77 -80 3 -161 8 -180 12 l-35 6 -1 181 c0 121 -7 216 -18 282 -77 457
-280 748 -501 715z"/>
<path d="M4663 8189 c-75 -22 -99 -119 -44 -178 55 -59 155 -35 181 43 26 81
-53 159 -137 135z"/>
<path d="M6769 8071 c-35 -35 -36 -42 -6 -76 43 -51 164 -41 182 15 16 50 -31
90 -105 90 -33 0 -48 -6 -71 -29z"/>
<path d="M7314 8030 c-58 -9 -123 -28 -141 -43 -10 -7 -13 -108 -13 -443 l0
-433 22 -15 c23 -16 84 -21 125 -10 22 6 23 10 25 173 l3 166 145 6 c216 9
298 48 359 171 56 111 38 248 -42 331 -50 51 -95 73 -185 92 -71 15 -212 18
-298 5z m287 -111 c55 -30 85 -76 94 -139 13 -92 -10 -167 -65 -213 -42 -36
-89 -47 -202 -47 l-98 0 0 209 0 210 33 4 c17 3 69 4 114 2 63 -2 91 -8 124
-26z"/>
<path d="M4150 7919 c-71 -12 -155 -51 -170 -79 -17 -31 -6 -83 25 -124 24
-32 124 -116 137 -116 4 0 15 15 26 34 l20 34 -40 38 c-101 99 -89 164 38 204
63 20 52 23 -36 9z"/>
<path d="M9022 7845 c-67 -19 -156 -61 -173 -82 -11 -13 -15 -100 -17 -427 -2
-226 0 -425 3 -443 5 -27 12 -34 45 -44 27 -8 53 -9 82 -3 l43 9 3 138 3 138
32 -7 c18 -4 75 -7 127 -6 167 0 276 63 336 195 26 56 29 73 29 167 0 141 -19
194 -100 276 -42 42 -75 66 -110 78 -69 25 -233 31 -303 11z m225 -96 c84 -41
118 -115 117 -259 0 -123 -15 -174 -68 -226 -66 -66 -162 -81 -252 -38 l-34
16 0 248 0 248 38 15 c55 23 147 21 199 -4z"/>
<path d="M8228 7810 c-68 -11 -150 -44 -174 -71 -17 -19 -17 -21 3 -47 25 -32
39 -32 120 2 175 74 293 27 293 -116 0 -67 12 -61 -158 -78 -171 -16 -270 -62
-302 -140 -18 -43 -9 -144 16 -178 33 -44 107 -88 172 -102 132 -28 329 1 412
60 l30 21 0 237 c0 209 -3 242 -19 278 -24 52 -83 101 -144 119 -64 19 -179
26 -249 15z m242 -504 l0 -124 -34 -12 c-19 -6 -66 -11 -105 -11 -114 -1 -161
38 -161 133 0 94 65 128 263 136 l37 2 0 -124z"/>
<path d="M9957 7810 c-162 -28 -272 -155 -284 -328 -17 -247 120 -396 377
-409 109 -6 195 11 260 52 46 29 50 52 15 85 l-25 23 -71 -36 c-61 -32 -81
-37 -138 -37 -119 0 -195 55 -234 171 -8 24 -14 45 -13 46 1 1 103 16 226 33
124 16 242 35 262 41 47 12 62 38 53 92 -23 139 -124 239 -270 266 -65 12 -88
12 -158 1z m140 -91 c46 -17 92 -69 108 -123 26 -86 35 -80 -157 -105 -95 -12
-181 -25 -190 -27 -15 -4 -18 1 -18 29 0 51 27 132 56 167 51 61 133 85 201
59z"/>
<path d="M10723 7795 c-71 -19 -148 -60 -167 -87 -14 -19 -16 -65 -16 -314 l0
-291 25 -11 c29 -13 67 -15 114 -6 l31 7 0 294 0 294 38 16 c48 21 144 30 206
21 33 -5 54 -3 63 4 21 17 11 61 -17 75 -34 17 -211 16 -277 -2z"/>
<path d="M6778 7793 c-17 -4 -18 -29 -18 -343 0 -339 0 -339 22 -354 23 -16
84 -21 126 -10 l22 6 0 344 0 344 -26 10 c-25 10 -94 12 -126 3z"/>
<path d="M4302 7694 c-46 -23 -89 -77 -102 -125 -21 -78 6 -152 76 -205 33
-26 46 -29 110 -29 66 0 75 3 112 32 l41 33 43 -19 c126 -54 626 -201 684
-201 9 0 26 67 20 77 -1 1 -55 14 -121 28 -137 31 -405 110 -514 153 l-74 29
-2 55 c-2 65 -24 108 -78 151 -31 26 -48 32 -100 34 -43 3 -72 -1 -95 -13z"/>
<path d="M5745 7703 c-96 -25 -124 -146 -49 -212 62 -55 150 -37 189 39 19 37
19 64 -1 105 -24 52 -86 81 -139 68z"/>
<path d="M4691 7179 c-52 -48 -51 -120 1 -164 27 -23 39 -26 75 -22 51 5 71
20 90 66 19 44 9 84 -29 116 -39 33 -104 35 -137 4z"/>
</g>
</svg>
